{"title":"The Other Side of the Mirror: Bob Dylan at the Newport Folk Fest","uid":9620470,"size":5197657851,"categoryP":"video","categoryS":"music_videos","magnet":"?xt=urn:btih:c54aa8d9a8a550d198926b39da54568fb2713647&amp;dn=The+Other+Side+of+the+Mirror%3A+Bob+Dylan+at+the+Newport+Folk+Fest&amp;tr=udp%3A%2F%2Ftracker.openbittorrent.com%3A80&amp;tr=udp%3A%2F%2Fopen.demonii.com%3A1337&amp;tr=udp%3A%2F%2Ftracker.coppersurfer.tk%3A6969&amp;tr=udp%3A%2F%2Fexodus.desync.com%3A6969","seeders":2,"leechers":0,"uploader":"neni69","files":1,"time":1392493066,"description":" &lt;a href=&quot; http://mediaclub.tv/&quot; rel=&quot;nofollow&quot; target=&quot;_NEW&quot;&gt; http://mediaclub.tv/&lt;/a&gt;   Welcome to MediaClub\n\n===================================================================\n\nUnique ID                      : 193065759153586361722556243382947553132 (0x913F1CD8877EE066A9A7A594DAE81F6C)\nComplete name                  : E:MCThe.Other.Side.of.the.Mirror.Bob.Dylan.at.the.Newport.Folk.Festival.2007.x264.BDRip(720p).-MediaClubThe.Other.Side.of.the.Mirror.Bob.Dylan.at.the.Newport.Folk.Festival.2007.x264.BDRip(720p).-MediaClub.mkv\nFormat                         : Matroska\nFormat version                 : Version 2\nFile size                      : 4.84 GiB\nDuration                       : 1h 23mn\nOverall bit rate               : 8 336 Kbps\nMovie name                     : -= Release MediaClub =-\nEncoded date                   : UTC 2014-02-12 12:23:45\nWriting application            : mkvmerge v5.6.0 ('Kenya Kane') built on May 27 2012 16:44:04\nWriting library                : libebml v1.2.3 + libmatroska v1.3.0\n\nVideo\nID                             : 1\nFormat                         : AVC\nFormat/Info                    : Advanced Video Codec\nFormat profile                 : &lt;a class=&quot;__cf_email__&quot; href=&quot;/cdn-cgi/l/email-protection&quot; data-cfemail=&quot;cd85a4aaa58d81f9e3fc&quot;&gt;[email&amp;#160;protected]&lt;/a&gt;&lt;script cf-hash='f9e31' type=&quot;text/javascript&quot;&gt;\n/* &lt;![CDATA[ */!function(){try{var t=&quot;currentScript&quot;in document?document.currentScript:function(){for(var t=document.getElementsByTagName(&quot;script&quot;),e=t.length;e--;)if(t[e].getAttribute(&quot;cf-hash&quot;))return t[e]}();if(t&amp;&amp;t.previousSibling){var e,r,n,i,c=t.previousSibling,a=c.getAttribute(&quot;data-cfemail&quot;);if(a){for(e=&quot;&quot;,r=parseInt(a.substr(0,2),16),n=2;a.length-n;n+=2)i=parseInt(a.substr(n,2),16)^r,e+=String.fromCharCode(i);e=document.createTextNode(e),c.parentNode.replaceChild(e,c)}}}catch(u){}}();/* ]]&gt; */&lt;/script&gt;\nFormat settings, CABAC         : Yes\nFormat settings, ReFrames      : 7 frames\nCodec ID                       : V_MPEG4/ISO/AVC\nDuration                       : 1h 23mn\nBit rate                       : 7 701 Kbps\nWidth                          : 960 pixels\nHeight                         : 720 pixels\nDisplay aspect ratio           : 4:3\nFrame rate                     : 23.976 fps\nColor space                    : YUV\nChroma subsampling             : 4:2:0\nBit depth                      : 8 bits\nScan type                      : Progressive\nBits/(Pixel*Frame)             : 0.465\nStream size                    : 4.37 GiB (90%)\nTitle                          : The.Other.Side.of.the.Mirror.Bob.Dylan.at.the.Newport.Folk.Festival.2007.x264.BDRip(720p).-neni\nWriting library                : x264 core 130 r2273 b3065e6\nEncoding settings              : cabac=1 / ref=7 / deblock=1:-3:-3 / analyse=0x3:0x113 / me=umh / subme=11 / psy=1 / psy_rd=1.00:0.20 / mixed_ref=1 / me_range=48 / chroma_me=1 / trellis=2 / 8x8dct=1 / cqm=0 / deadzone=21,11 / fast_pskip=0 / chroma_qp_offset=-3 / threads=9 / lookahead_threads=1 / sliced_threads=0 / nr=0 / decimate=0 / interlaced=0 / bluray_compat=0 / constrained_intra=0 / bframes=8 / b_pyramid=2 / b_adapt=2 / b_bias=0 / direct=3 / weightb=1 / open_gop=0 / weightp=2 / keyint=240 / keyint_min=23 / scenecut=40 / intra_refresh=0 / rc=2pass / mbtree=0 / bitrate=7701 / ratetol=1.0 / qcomp=0.60 / qpmin=0 / qpmax=69 / qpstep=4 / cplxblur=20.0 / qblur=0.5 / ip_ratio=1.40 / pb_ratio=1.30 / aq=2:1.00\nLanguage                       : English\nDefault                        : Yes\nForced                         : Yes\n\nAudio\nID                             : 2\nFormat                         : AC-3\nFormat/Info                    : Audio Coding 3\nMode extension                 : CM (complete main)\nFormat settings, Endianness    : Big\nCodec ID                       : A_AC3\nDuration                       : 1h 23mn\nBit rate mode                  : Constant\nBit rate                       : 640 Kbps\nChannel(s)                     : 6 channels\nChannel positions              : Front: L C R, Side: L R, LFE\nSampling rate                  : 48.0 KHz\nBit depth                      : 16 bits\nCompression mode               : Lossy\nStream size                    : 381 MiB (8%)\nTitle                          : AC3 640\nLanguage                       : English\nDefault                        : Yes\nForced                         : Yes\n\nText\nID                             : 3\nFormat                         : UTF-8\nCodec ID                       : S_TEXT/UTF8\nCodec ID/Info                  : UTF-8 Plain Text\nLanguage                       : English\nDefault                        : No\nForced                         : No\n\nMenu\n00:00:00.000                   : :Chapter 01\n00:02:50.712                   : :Chapter 02\n00:07:07.718                   : :Chapter 03\n00:13:15.211                   : :Chapter 04\n00:17:43.020                   : :Chapter 05\n00:21:09.726                   : :Chapter 06\n00:25:05.629                   : :Chapter 07\n00:29:10.415                   : :Chapter 08\n00:35:05.770                   : :Chapter 09\n00:36:39.989                   : :Chapter 10\n00:38:57.126                   : :Chapter 11\n00:39:58.813                   : :Chapter 12\n00:41:23.022                   : :Chapter 13\n00:51:20.827                   : :Chapter 14\n00:53:32.417                   : :Chapter 15\n00:56:53.368                   : :Chapter 16\n00:58:12.572                   : :Chapter 17\n00:59:21.766                   : :Chapter 18\n01:04:20.565                   : :Chapter 19\n01:10:53.916                   : :Chapter 20\n01:16:16.029                   : :Chapter 21\n01:21:36.892                   : :Chapter 22\n01:23:07.732                   : :Chapter 23","torrent":{"xt":"urn:btih:c54aa8d9a8a550d198926b39da54568fb2713647","amp;dn":"The+Other+Side+of+the+Mirror%3A+Bob+Dylan+at+the+Newport+Folk+Fest","amp;tr":["udp%3A%2F%2Ftracker.openbittorrent.com%3A80","udp%3A%2F%2Fopen.demonii.com%3A1337","udp%3A%2F%2Ftracker.coppersurfer.tk%3A6969","udp%3A%2F%2Fexodus.desync.com%3A6969"],"infoHash":"c54aa8d9a8a550d198926b39da54568fb2713647","infoHashBuffer":{"type":"Buffer","data":[197,74,168,217,168,165,80,209,152,146,107,57,218,84,86,143,178,113,54,71]},"announce":[],"urlList":[]}}